<?xml version="1.0" standalone="no"?><!DOCTYPE svg PUBLIC "-//W3C//DTD SVG 1.1//EN" "http://www.w3.org/Graphics/SVG/1.1/DTD/svg11.dtd"><svg t="1752990639198" class="icon" viewBox="0 0 1024 1024" version="1.1" xmlns="http://www.w3.org/2000/svg" p-id="1462" width="64" height="64" xmlns:xlink="http://www.w3.org/1999/xlink"><path d="M511.84439322 426.3614885l-318.27914181-318.27914183a60.58603565 60.58603565 0 0 0-85.6905381 1e-8 60.58603565 60.58603565 0 0 0 0 85.69053809l318.27914182 318.27914181L108.11954337 830.09575391a60.58603565 60.58603565 0 0 0 0 85.69053809l0.12241543 0.12241543a60.58603565 60.58603565 0 0 0 85.69053809 0l318.03431094-318.06256091 318.27914181 318.27914181a60.58603565 60.58603565 0 0 0 85.69053809 0 60.58603565 60.58603565 0 0 0 0-85.69053809l-318.27914181-318.27914181L916.14365142 193.70696926a60.58603565 60.58603565 0 0 0 1e-8-85.69053808l-0.12241544-0.12241543a60.58603565 60.58603565 0 0 0-85.69053809 0z" p-id="1463" fill="#8a8a8a"></path></svg>